<svg width="183.84" height="112.441" viewBox="0 0 183.84 112.441" xmlns="http://www.w3.org/2000/svg"><g id="svgGroup" stroke-linecap="round" fill-rule="evenodd" font-size="9pt" stroke="#FFFF" stroke-width="0.25mm" fill="white" style="stroke:#FFFF;stroke-width:0.25mm;fill:white"><path d="M 43.2 74.04 L 43.08 83.52 A 25.71 25.71 0 0 1 38.705 86.674 A 29.559 29.559 0 0 1 37.56 87.3 Q 34.44 88.92 31.02 89.88 Q 27.6 90.84 24 90.84 A 28.187 28.187 0 0 1 17.94 90.222 A 19.923 19.923 0 0 1 10.62 87.06 Q 5.28 83.28 2.64 76.38 Q 0.165 69.912 0.01 61.281 A 64.757 64.757 0 0 1 0 60.12 Q 0 51.96 1.86 44.16 Q 3.72 36.36 7.44 29.58 Q 11.16 22.8 16.56 17.7 Q 21.96 12.6 29.04 9.72 A 38.955 38.955 0 0 1 39.312 7.15 A 48.671 48.671 0 0 1 44.88 6.84 Q 49.2 6.84 53.22 7.68 A 25.277 25.277 0 0 1 58.026 9.175 A 21.601 21.601 0 0 1 60.42 10.38 Q 63.6 12.24 65.46 15.12 Q 67.32 18 67.32 21.96 Q 67.32 26.04 65.46 29.1 Q 63.6 32.16 60.6 33.84 Q 57.6 35.52 54.12 35.52 A 9.873 9.873 0 0 1 53.076 35.461 Q 52.262 35.374 51.3 35.16 A 9.886 9.886 0 0 1 50.008 34.784 Q 49.34 34.537 48.797 34.206 A 5.775 5.775 0 0 1 48.6 34.08 A 16.676 16.676 0 0 0 49.298 32.099 A 22.067 22.067 0 0 0 49.74 30.24 A 21.802 21.802 0 0 0 50.052 27.969 Q 50.153 26.8 50.16 25.495 A 35.89 35.89 0 0 0 50.16 25.32 Q 50.16 22.92 49.38 20.58 Q 48.6 18.24 46.8 16.68 Q 45.151 15.251 42.393 15.131 A 11.837 11.837 0 0 0 41.88 15.12 A 11.437 11.437 0 0 0 34.873 17.525 A 14.694 14.694 0 0 0 34.2 18.06 A 23.858 23.858 0 0 0 30.385 22.186 A 31.11 31.11 0 0 0 28.14 25.74 A 54.35 54.35 0 0 0 25.025 32.597 A 65.415 65.415 0 0 0 23.76 36.3 Q 21.96 42.12 21.06 47.94 A 79.007 79.007 0 0 0 20.332 54.241 A 62.514 62.514 0 0 0 20.16 58.8 A 49.625 49.625 0 0 0 20.559 65.179 A 44.862 44.862 0 0 0 20.7 66.18 A 23.807 23.807 0 0 0 21.633 70.118 A 19.577 19.577 0 0 0 22.62 72.54 Q 24 75.36 26.4 76.98 A 8.899 8.899 0 0 0 29.209 78.208 Q 30.365 78.502 31.717 78.576 A 16.992 16.992 0 0 0 32.64 78.6 A 16.824 16.824 0 0 0 35.968 78.257 A 19.385 19.385 0 0 0 36.84 78.06 A 15.442 15.442 0 0 0 39.61 77.092 A 13.405 13.405 0 0 0 40.74 76.5 A 7.66 7.66 0 0 0 41.965 75.621 Q 42.692 74.974 43.116 74.201 A 4.735 4.735 0 0 0 43.2 74.04 Z M 42 77.04 L 46.08 50.64 L 65.28 48.48 A 48.759 48.759 0 0 0 63.333 53.521 A 61.588 61.588 0 0 0 62.22 57.36 Q 60.96 62.28 59.88 68.22 A 1015.461 1015.461 0 0 1 58.749 74.327 Q 58.103 77.764 57.36 81.6 Q 56.16 88.44 54.78 94.14 A 54.281 54.281 0 0 1 53.435 98.818 Q 52.481 101.625 51.3 103.92 A 18.141 18.141 0 0 1 48.799 107.633 A 14.832 14.832 0 0 1 45.84 110.22 A 12.656 12.656 0 0 1 41.865 111.919 Q 40.186 112.335 38.22 112.419 A 23.808 23.808 0 0 1 37.2 112.44 Q 32.88 112.44 29.28 110.16 A 8.773 8.773 0 0 1 25.486 104.987 A 12.909 12.909 0 0 1 25.08 102.96 Q 25.68 103.08 26.28 103.14 A 13.107 13.107 0 0 0 26.816 103.183 Q 27.105 103.2 27.36 103.2 A 11.703 11.703 0 0 0 30.824 102.706 A 9.891 9.891 0 0 0 33.78 101.22 A 13.47 13.47 0 0 0 36.845 98.043 A 17.68 17.68 0 0 0 38.22 95.7 A 28.188 28.188 0 0 0 39.832 91.6 A 38.26 38.26 0 0 0 40.86 87.42 A 65.166 65.166 0 0 0 41.664 81.803 A 82.501 82.501 0 0 0 42 77.04 Z" id="0" vector-effect="non-scaling-stroke"/><path d="M 74.28 59.04 L 80.64 27.24 L 99.48 25.32 L 90 73.2 Q 89.88 74.16 89.64 75.66 A 22.764 22.764 0 0 0 89.494 76.726 Q 89.435 77.251 89.413 77.711 A 11.117 11.117 0 0 0 89.4 78.24 A 6.132 6.132 0 0 0 89.722 80.255 A 5.444 5.444 0 0 0 90.54 81.78 A 4.141 4.141 0 0 0 92.427 83.152 Q 93.161 83.428 94.08 83.52 A 8.615 8.615 0 0 1 89.732 88.867 A 11.121 11.121 0 0 1 89.4 89.04 Q 85.8 90.84 81.84 90.84 A 14.9 14.9 0 0 1 78.428 90.471 A 10.246 10.246 0 0 1 73.92 88.2 A 8.499 8.499 0 0 1 71.291 83.767 Q 70.943 82.384 70.922 80.741 A 16.671 16.671 0 0 1 70.92 80.52 Q 70.92 78.72 71.28 75.84 A 133.235 133.235 0 0 1 71.86 71.739 A 155.918 155.918 0 0 1 72.18 69.78 A 171.907 171.907 0 0 1 73.024 65.179 A 149.575 149.575 0 0 1 73.32 63.72 Q 73.92 60.84 74.28 59.04 Z M 89.831 16.831 A 16.697 16.697 0 0 0 93.24 17.16 A 17.052 17.052 0 0 0 96.571 16.85 A 12.203 12.203 0 0 0 101.1 15 A 6.869 6.869 0 0 0 103.905 11.233 A 9.263 9.263 0 0 0 104.28 8.52 A 10.516 10.516 0 0 0 104.205 7.242 A 7.025 7.025 0 0 0 101.28 2.16 A 10.057 10.057 0 0 0 100.686 1.764 Q 99.039 0.747 96.937 0.317 A 16.627 16.627 0 0 0 93.6 0 Q 88.92 0 85.68 2.22 A 7.061 7.061 0 0 0 82.841 5.982 A 9.131 9.131 0 0 0 82.44 8.76 A 9.834 9.834 0 0 0 82.507 9.929 A 6.947 6.947 0 0 0 85.5 15 Q 87.365 16.317 89.831 16.831 Z" id="1" vector-effect="non-scaling-stroke"/><path d="M 108 74.88 L 116.28 30.96 L 134.88 30.96 L 125.76 77.88 A 149.124 149.124 0 0 1 124.107 85.626 Q 123.227 89.241 122.247 92.318 A 67.232 67.232 0 0 1 120.66 96.78 A 38.252 38.252 0 0 1 118.476 101.4 Q 117.163 103.731 115.646 105.493 A 18.146 18.146 0 0 1 113.4 107.7 A 15.51 15.51 0 0 1 105.428 111.068 A 20.653 20.653 0 0 1 102.72 111.24 Q 97.92 111.24 95.04 109.56 A 9.167 9.167 0 0 1 92.762 107.722 A 7.789 7.789 0 0 1 91.2 105 Q 94.68 104.04 97.2 102.36 A 12.428 12.428 0 0 0 99.939 99.837 A 16.797 16.797 0 0 0 101.52 97.5 A 25.519 25.519 0 0 0 102.729 95.038 Q 103.293 93.73 103.83 92.171 A 62.521 62.521 0 0 0 104.88 88.8 A 108.338 108.338 0 0 0 106.026 84.358 Q 106.519 82.277 107.013 79.908 A 236.059 236.059 0 0 0 108 74.88 Z M 145.68 32.64 L 107.52 32.64 L 108.6 27.24 L 117 27.24 L 118.68 20.4 A 31.635 31.635 0 0 1 120.398 15.411 Q 121.98 11.87 124.32 9.42 Q 128.16 5.4 133.68 3.72 A 38.692 38.692 0 0 1 141.39 2.239 A 47.765 47.765 0 0 1 145.8 2.04 Q 149.16 2.04 152.52 2.52 A 29.795 29.795 0 0 1 156.299 3.302 A 24.326 24.326 0 0 1 158.64 4.08 Q 161.4 5.16 163.08 7.08 A 6.732 6.732 0 0 1 164.696 10.792 A 8.994 8.994 0 0 1 164.76 11.88 A 8.558 8.558 0 0 1 164.379 14.506 A 6.543 6.543 0 0 1 161.52 18.12 Q 158.28 20.16 154.32 20.16 Q 152.76 20.16 151.14 19.86 A 10.277 10.277 0 0 1 149.054 19.249 A 9.041 9.041 0 0 1 148.2 18.84 A 11.184 11.184 0 0 0 149.224 16.478 A 13.239 13.239 0 0 0 149.46 15.6 A 16.01 16.01 0 0 0 149.839 13.182 A 13.931 13.931 0 0 0 149.88 12.12 A 7.916 7.916 0 0 0 149.756 10.676 Q 149.604 9.858 149.266 9.203 A 4.328 4.328 0 0 0 148.92 8.64 Q 147.96 7.32 145.56 7.32 A 6.35 6.35 0 0 0 142.742 7.929 Q 141.03 8.763 139.92 10.74 Q 138.139 13.912 137.184 18.375 A 39.749 39.749 0 0 0 137.04 19.08 L 135.6 27.24 L 146.4 27.24 L 145.68 32.64 Z" id="2" vector-effect="non-scaling-stroke"/><path d="M 151.44 50.16 L 154.92 32.64 L 147.12 32.64 L 147.6 29.04 A 69.375 69.375 0 0 0 158.845 24.114 A 77.907 77.907 0 0 0 160.44 23.22 Q 166.8 19.56 172.44 14.76 L 177.12 14.76 L 174.48 27.24 L 183.84 27.24 L 182.76 32.64 L 173.4 32.64 L 165.84 71.4 A 66.31 66.31 0 0 0 165.437 73.43 A 55.077 55.077 0 0 0 165.24 74.58 Q 165 76.08 165 77.52 Q 164.88 81.36 166.62 82.56 Q 168.268 83.697 171.586 83.111 A 16.932 16.932 0 0 0 171.96 83.04 A 15.06 15.06 0 0 1 170.565 85.475 A 10.773 10.773 0 0 1 168.3 87.84 Q 166.08 89.52 163.32 90.18 Q 160.56 90.84 157.68 90.84 Q 153 90.84 149.64 88.2 A 8.552 8.552 0 0 1 146.465 82.751 A 12.874 12.874 0 0 1 146.28 80.52 A 23.586 23.586 0 0 1 146.345 78.862 Q 146.486 76.864 146.94 74.1 Q 147.6 70.08 148.44 65.52 A 288.206 288.206 0 0 1 149.734 58.917 A 251.462 251.462 0 0 1 150.18 56.82 Q 150.948 53.287 151.323 50.933 A 48.86 48.86 0 0 0 151.44 50.16 Z" id="3" vector-effect="non-scaling-stroke"/></g></svg>